<svg xmlns="http://www.w3.org/2000/svg"><symbol id="search_box__icon"><path fill-rule="evenodd" d="M19.993 19.98l-1.044 1.047-5.767-5.784a6.588 6.588 0 01-1.094.798 8.506 8.506 0 01-1.243.598 7.07 7.07 0 01-1.367.374 8.322 8.322 0 01-1.417.125 7.72 7.72 0 01-3.157-.648 8.321 8.321 0 01-2.56-1.745 7.99 7.99 0 01-1.715-2.568 7.909 7.909 0 01-.622-3.116 8.04 8.04 0 012.337-5.734A7.984 7.984 0 018.061.984a8.01 8.01 0 015.668 2.343 8.403 8.403 0 011.74 2.568c.43.981.646 2.036.646 3.166 0 .466-.042.939-.124 1.421a7.31 7.31 0 01-.373 1.371 8.638 8.638 0 01-.597 1.246 6.613 6.613 0 01-.795 1.097l5.767 5.784zM.852 9.061a7.101 7.101 0 002.088 5.085 7.388 7.388 0 002.312 1.571 6.966 6.966 0 002.809.573c.994 0 1.922-.191 2.784-.573a7.465 7.465 0 002.287-1.571 7.5 7.5 0 001.566-2.293 6.843 6.843 0 00.572-2.792 7.02 7.02 0 00-.572-2.817 7.434 7.434 0 00-1.566-2.318 7.14 7.14 0 00-2.287-1.546 7.066 7.066 0 00-2.784-.549c-.994 0-1.931.184-2.809.549a7.086 7.086 0 00-3.853 3.864 7.286 7.286 0 00-.547 2.817z"/></symbol><symbol id="search_icon"><path d="M57.266 53.812l-2.954 2.954L38 40.453a18.609 18.609 0 01-3.094 2.25 24.254 24.254 0 01-3.515 1.688c-1.22.47-2.51.821-3.868 1.054-1.36.235-2.696.352-4.007.352-3.189 0-6.166-.609-8.93-1.828-2.766-1.218-5.181-2.859-7.242-4.922-2.064-2.061-3.681-4.476-4.852-7.242C1.319 29.04.734 26.109.734 23.016c0-3.186.585-6.164 1.758-8.93 1.171-2.764 2.788-5.179 4.852-7.242 2.061-2.061 4.476-3.679 7.242-4.852C17.35.821 20.327.234 23.516.234c3.093 0 6.022.587 8.789 1.758 2.764 1.173 5.179 2.791 7.242 4.852 2.061 2.063 3.702 4.478 4.922 7.242 1.217 2.766 1.828 5.744 1.828 8.93 0 1.313-.119 2.649-.352 4.007a20.452 20.452 0 01-1.054 3.867 24.535 24.535 0 01-1.688 3.516 18.64 18.64 0 01-2.25 3.094l16.313 16.312zM3.125 23.016c0 2.812.514 5.438 1.547 7.874a20.129 20.129 0 004.359 6.469 20.879 20.879 0 006.539 4.43c2.483 1.079 5.133 1.617 7.946 1.617 2.812 0 5.436-.538 7.875-1.617a21.163 21.163 0 006.468-4.43 21.178 21.178 0 004.43-6.469c1.077-2.436 1.617-5.062 1.617-7.874 0-2.813-.54-5.461-1.617-7.946a21.004 21.004 0 00-4.43-6.539 20.244 20.244 0 00-6.468-4.359c-2.439-1.031-5.063-1.547-7.875-1.547-2.813 0-5.463.516-7.946 1.547a19.999 19.999 0 00-6.539 4.359 19.988 19.988 0 00-4.359 6.539c-1.033 2.485-1.547 5.133-1.547 7.946z"/></symbol><symbol id="check_icon"><path d="M30 .547c4.124 0 8.016.773 11.672 2.32 3.656 1.547 6.842 3.681 9.562 6.398 2.718 2.721 4.852 5.907 6.399 9.563 1.547 3.656 2.32 7.548 2.32 11.672 0 4.126-.773 8.015-2.32 11.672-1.547 3.656-3.681 6.844-6.399 9.562-2.72 2.72-5.906 4.852-9.562 6.399-3.656 1.546-7.548 2.32-11.672 2.32-4.127 0-8.016-.774-11.672-2.32-3.656-1.547-6.844-3.679-9.562-6.399-2.721-2.718-4.852-5.906-6.399-9.562C.82 38.515.047 34.626.047 30.5c0-4.124.773-8.016 2.32-11.672 1.547-3.656 3.678-6.842 6.399-9.563 2.718-2.717 5.906-4.851 9.562-6.398C21.984 1.32 25.873.547 30 .547zm0 57.515c3.843 0 7.429-.725 10.758-2.179 3.326-1.453 6.258-3.397 8.789-5.836 2.437-2.531 4.381-5.46 5.836-8.789 1.452-3.327 2.179-6.913 2.179-10.758 0-3.843-.727-7.429-2.179-10.758-1.455-3.327-3.399-6.258-5.836-8.789-2.531-2.437-5.463-4.381-8.789-5.836-3.329-1.452-6.915-2.18-10.758-2.18-3.845 0-7.431.728-10.758 2.18-3.329 1.455-6.258 3.399-8.789 5.836-2.439 2.531-4.383 5.462-5.836 8.789-1.454 3.329-2.18 6.915-2.18 10.758 0 3.845.726 7.431 2.18 10.758 1.453 3.329 3.397 6.258 5.836 8.789 2.531 2.439 5.46 4.383 8.789 5.836 3.327 1.454 6.913 2.179 10.758 2.179zm15.047-38.25c.281-.373.679-.562 1.195-.562.514 0 .96.189 1.336.562.281.376.422.822.422 1.336 0 .517-.189.914-.563 1.196L26.906 42.312c-.094.189-.259.306-.492.352-.235.048-.446.07-.633.07-.281 0-.54-.022-.773-.07-.235-.046-.4-.163-.492-.352L16.5 34.297a1.819 1.819 0 01-.562-1.336c0-.514.186-.914.562-1.196.281-.373.679-.562 1.195-.562.514 0 .96.189 1.336.562l6.75 6.75 19.266-18.703z"/></symbol><symbol id="like_icon"><path d="M61.586 28.656c0 .657-.095 1.266-.281 1.828a5.04 5.04 0 01-.844 1.547 4.76 4.76 0 01-1.266 1.125c-.47.281-.984.516-1.547.703.282.47.515.963.703 1.477.187.516.282 1.103.282 1.758a5.32 5.32 0 01-.282 1.687 7.727 7.727 0 01-.703 1.547 9.394 9.394 0 01-1.265 1.055 6.993 6.993 0 01-1.406.773c.281.47.514.984.703 1.547.186.563.281 1.125.281 1.688 0 .656-.095 1.243-.281 1.757a8.585 8.585 0 01-.703 1.477c-.376.47-.798.868-1.266 1.195-.47.33-.985.541-1.547.633.374.47.655.963.844 1.476.187.517.281 1.104.281 1.758 0 .657-.141 1.314-.422 1.969a5.314 5.314 0 01-1.125 1.688 7.392 7.392 0 01-1.828 1.125 5.306 5.306 0 01-2.109.421H29.242c-.657 0-1.406-.092-2.25-.281a17.155 17.155 0 01-2.672-.843 22.838 22.838 0 01-2.812-1.055 74.963 74.963 0 00-2.813-1.196 195.81 195.81 0 01-3.304-1.406c-1.079-.468-1.853-.703-2.321-.703H.273V25.984l1.125-.14h10.969c.844 0 1.617-.093 2.32-.282.704-.186 1.429-.562 2.18-1.125.844-.468 1.804-1.125 2.883-1.968a290.684 290.684 0 003.867-3.094c2.905-2.437 4.617-5.485 5.133-9.141.514-3.656.773-5.765.773-6.328 0-.562.141-1.101.422-1.617a3.075 3.075 0 011.125-1.195c.468-.374.96-.633 1.477-.774a5.576 5.576 0 011.476-.211c.75 0 1.499.095 2.25.281.75.189 1.453.611 2.11 1.266.655.657 1.171 1.525 1.547 2.602.373 1.079.562 2.509.562 4.289 0 1.595-.119 3.118-.351 4.57a36.15 36.15 0 01-.915 4.149 23.033 23.033 0 01-1.054 3.585 211.524 211.524 0 00-1.055 2.743h19.125c.844 0 1.569.118 2.18.351A6.307 6.307 0 0160.18 25a4.64 4.64 0 011.054 1.617 5.68 5.68 0 01.352 2.039zm-5.344 2.953c.468 0 .89-.07 1.266-.211.373-.14.655-.351.843-.633.282-.281.515-.584.704-.913.186-.328.281-.726.281-1.196 0-.749-.281-1.406-.844-1.969-.562-.562-1.314-.843-2.25-.843h-8.437c0 .094 0 .094 0 0H33.32l.844-1.688c2.624-6.469 3.938-11.672 3.938-15.609 0-3.094-.517-4.898-1.547-5.414-1.033-.515-1.877-.774-2.532-.774-.281 0-.703.141-1.265.422-.563.281-.844.657-.844 1.125 0 .563-.048 1.501-.141 2.813-.094 1.314-.375 2.812-.843 4.5-.471 1.687-1.15 3.423-2.039 5.203-.892 1.782-2.134 3.329-3.727 4.64a3674.82 3674.82 0 00-4.008 3.305c-1.079.892-2.087 1.617-3.023 2.18a12.47 12.47 0 01-2.813 1.265 10.2 10.2 0 01-2.953.422H2.664v22.782H13.07c.655 0 1.523.21 2.602.632 1.076.422 2.412.963 4.008 1.617.749.376 1.568.774 2.461 1.196.889.422 1.757.773 2.601 1.054.936.282 1.78.541 2.531.774.75.235 1.407.352 1.969.352h18.563c.468 0 .89-.093 1.265-.282a3.78 3.78 0 00.985-.703c.281-.187.492-.468.632-.844.141-.373.211-.749.211-1.125 0-.468-.07-.865-.211-1.195a2.92 2.92 0 00-.632-.914 2.76 2.76 0 00-.985-.633 3.597 3.597 0 00-1.265-.211h-.282v-2.39h3.235c.373 0 .749-.071 1.125-.211.373-.141.703-.352.984-.633.187-.281.374-.609.563-.984.186-.374.281-.75.281-1.125 0-.374-.095-.75-.281-1.125a9.64 9.64 0 00-.563-.985 9.544 9.544 0 00-.984-.562 2.513 2.513 0 00-1.125-.282h-.985v-2.39h3.516c.374 0 .749-.071 1.125-.211.374-.141.703-.352.984-.633.282-.281.514-.609.704-.984.186-.374.281-.75.281-1.125 0-.468-.095-.89-.281-1.266-.19-.374-.422-.655-.704-.844a3.805 3.805 0 00-.984-.703A2.509 2.509 0 0053.289 34h-1.125v-2.391h4.078z"/></symbol></svg>